<mxfile host="app.diagrams.net" modified="2024-04-25T11:36:02.309Z" agent="Mozilla/5.0 (Windows NT 10.0; Win64; x64) AppleWebKit/537.36 (KHTML, like Gecko) Chrome/123.0.0.0 Safari/537.36" etag="J9syBCQtJXQv8tvpdANi" version="24.3.0" type="device">
  <diagram name="Seite-1" id="tXNrXc6Ny8n2_g2PpTBu">
    <mxGraphModel dx="1050" dy="557" grid="1" gridSize="10" guides="1" tooltips="1" connect="1" arrows="1" fold="1" page="1" pageScale="1" pageWidth="827" pageHeight="1169" math="0" shadow="0">
      <root>
        <mxCell id="0" />
        <mxCell id="1" parent="0" />
        <mxCell id="gEa0B9AiSsyNcpvKk_ao-1" value="Benutzer" style="shape=umlActor;verticalLabelPosition=bottom;verticalAlign=top;html=1;" parent="1" vertex="1">
          <mxGeometry x="90" y="160" width="60" height="120" as="geometry" />
        </mxCell>
        <mxCell id="gEa0B9AiSsyNcpvKk_ao-5" value="Produkt Auswählen" style="ellipse;whiteSpace=wrap;html=1;" parent="1" vertex="1">
          <mxGeometry x="300" y="260" width="140" height="70" as="geometry" />
        </mxCell>
        <mxCell id="gEa0B9AiSsyNcpvKk_ao-6" value="Produkt Abwählen" style="ellipse;whiteSpace=wrap;html=1;" parent="1" vertex="1">
          <mxGeometry x="300" y="80" width="140" height="70" as="geometry" />
        </mxCell>
        <mxCell id="gEa0B9AiSsyNcpvKk_ao-8" value="Scores Anzeigen" style="ellipse;whiteSpace=wrap;html=1;" parent="1" vertex="1">
          <mxGeometry x="270" y="350" width="140" height="70" as="geometry" />
        </mxCell>
        <mxCell id="gEa0B9AiSsyNcpvKk_ao-9" value="Informationen anzeigen" style="ellipse;whiteSpace=wrap;html=1;" parent="1" vertex="1">
          <mxGeometry x="330" y="170" width="140" height="70" as="geometry" />
        </mxCell>
        <mxCell id="gEa0B9AiSsyNcpvKk_ao-25" value="" style="endArrow=none;html=1;rounded=0;entryX=0;entryY=1;entryDx=0;entryDy=0;exitX=0.5;exitY=0.5;exitDx=0;exitDy=0;exitPerimeter=0;" parent="1" source="gEa0B9AiSsyNcpvKk_ao-1" target="gEa0B9AiSsyNcpvKk_ao-6" edge="1">
          <mxGeometry width="50" height="50" relative="1" as="geometry">
            <mxPoint y="300" as="sourcePoint" />
            <mxPoint x="50" y="250" as="targetPoint" />
          </mxGeometry>
        </mxCell>
        <mxCell id="gEa0B9AiSsyNcpvKk_ao-26" value="" style="endArrow=none;html=1;rounded=0;entryX=0;entryY=0.5;entryDx=0;entryDy=0;exitX=0.5;exitY=0.5;exitDx=0;exitDy=0;exitPerimeter=0;" parent="1" source="gEa0B9AiSsyNcpvKk_ao-1" target="gEa0B9AiSsyNcpvKk_ao-9" edge="1">
          <mxGeometry width="50" height="50" relative="1" as="geometry">
            <mxPoint x="130" y="230" as="sourcePoint" />
            <mxPoint x="251" y="150" as="targetPoint" />
          </mxGeometry>
        </mxCell>
        <mxCell id="gEa0B9AiSsyNcpvKk_ao-27" value="" style="endArrow=none;html=1;rounded=0;entryX=0;entryY=0.5;entryDx=0;entryDy=0;exitX=0.5;exitY=0.5;exitDx=0;exitDy=0;exitPerimeter=0;" parent="1" source="gEa0B9AiSsyNcpvKk_ao-1" target="gEa0B9AiSsyNcpvKk_ao-5" edge="1">
          <mxGeometry width="50" height="50" relative="1" as="geometry">
            <mxPoint x="140" y="240" as="sourcePoint" />
            <mxPoint x="261" y="160" as="targetPoint" />
          </mxGeometry>
        </mxCell>
        <mxCell id="gEa0B9AiSsyNcpvKk_ao-28" value="" style="endArrow=none;html=1;rounded=0;entryX=0;entryY=0;entryDx=0;entryDy=0;exitX=0.5;exitY=0.5;exitDx=0;exitDy=0;exitPerimeter=0;" parent="1" source="gEa0B9AiSsyNcpvKk_ao-1" target="gEa0B9AiSsyNcpvKk_ao-8" edge="1">
          <mxGeometry width="50" height="50" relative="1" as="geometry">
            <mxPoint x="150" y="250" as="sourcePoint" />
            <mxPoint x="271" y="170" as="targetPoint" />
          </mxGeometry>
        </mxCell>
      </root>
    </mxGraphModel>
  </diagram>
</mxfile>
